<svg width="5" height="5" viewBox="0 0 12 5" fill="none" xmlns="http://www.w3.org/2000/svg">
<path d="M1.644 4.008C1.116 4.008 0.72 3.828 0.456 3.468C0.192 3.108 0.06 2.748 0.06 2.388C0.06 1.932 0.18 1.572 0.42 1.308C0.66 1.044 0.924 0.899999 1.212 0.875999C2.58 0.779999 3.708 0.719999 4.596 0.696C5.484 0.648 6.324 0.612 7.116 0.588C7.908 0.564 8.832 0.539999 9.888 0.516C10.416 0.516 10.812 0.684 11.076 1.02C11.364 1.332 11.508 1.656 11.508 1.992C11.508 2.328 11.364 2.724 11.076 3.18C10.788 3.636 10.5 3.864 10.212 3.864C9.204 3.816 8.04 3.828 6.72 3.9C5.4 3.972 3.708 4.008 1.644 4.008Z" fill="black"/>
</svg>
