<svg width="5" height="2" viewBox="0 0 5 2" fill="none" xmlns="http://www.w3.org/2000/svg">
<path d="M1.176 1.336C1.048 1.336 0.96 1.312 0.912 1.264C0.864 1.216 0.84 1.136 0.84 1.024C0.84 0.776 0.904 0.644 1.032 0.628C1.424 0.588 1.76 0.56 2.04 0.544C2.32 0.52 2.576 0.504 2.808 0.496C3.04 0.48 3.276 0.468 3.516 0.46C3.756 0.452 4.024 0.444 4.32 0.436C4.4 0.436 4.476 0.484 4.548 0.58C4.62 0.676 4.656 0.8 4.656 0.952C4.656 1 4.636 1.064 4.596 1.144C4.556 1.224 4.508 1.26 4.452 1.252C4.068 1.236 3.62 1.248 3.108 1.288C2.604 1.32 1.96 1.336 1.176 1.336Z" fill="black"/>
</svg>
