<svg xmlns="http://www.w3.org/2000/svg" width="500" height="500" viewBox="0 0 500 500">
	<path fill="#0866ff" d="m500 250c0-138.071-111.929-250-250-250-138.071 0-250 111.929-250 250 0 117.245 80.715 215.622 189.606 242.638v-166.242h-51.552V250h51.552v-32.919c0-85.092 38.508-124.532 122.048-124.532 15.838 0 43.167 3.105 54.347 6.211V168.014c-5.901-.621-16.149-.932-28.882-.932-40.993 0-56.832 15.528-56.832 55.9V250h81.659l-14.028 76.396h-67.631V498.169C404.073 483.218 500 377.818 500 250"/>
	<path fill="#ffffff" d="M347.918 326.396 361.947 250H280.288v-27.019c0-40.372 15.838-55.899 56.831-55.899 12.733 0 22.981.31 28.882.931v-69.253c-11.18-3.106-38.509-6.212-54.347-6.212-83.539 0-122.048 39.441-122.048 124.533V250h-51.552V326.396h51.552v166.242c19.343 4.798 39.568 7.362 60.394 7.362 10.254 0 20.358-.632 30.288-1.831L280.288 326.396Z"/>
</svg>
