<svg width="18" height="18" viewBox="0 0 18 18" fill="none" xmlns="http://www.w3.org/2000/svg">
<path d="M9.73525 17.1048C9.39925 17.1048 8.97925 17.0088 8.47525 16.8168C7.99525 16.6008 7.75525 16.2648 7.75525 15.8088V10.8768L7.43125 10.7328H6.74725C6.14725 10.7328 5.52325 10.7688 4.87525 10.8408C4.25125 10.8888 3.62725 10.9128 3.00325 10.9128H1.77925C1.29925 10.7928 0.987252 10.5648 0.843252 10.2288C0.723252 9.86882 0.663252 9.48482 0.663252 9.07682C0.663252 8.59682 0.831252 8.15282 1.16725 7.74482C1.50325 7.31282 1.94725 7.09682 2.49925 7.09682H7.39525C7.37125 6.23282 7.33525 5.47682 7.28725 4.82882C7.23925 4.15682 7.21525 3.50882 7.21525 2.88482V1.76882C7.38325 1.38482 7.63525 1.08482 7.97125 0.868817C8.33125 0.652817 8.69125 0.544817 9.05125 0.544817C9.74725 0.544817 10.2513 0.808817 10.5633 1.33682C10.8753 1.84082 11.0313 2.41682 11.0313 3.06482V7.09682C12.0153 7.07282 12.9033 7.03682 13.6953 6.98882C14.4873 6.94082 15.2433 6.91682 15.9633 6.91682C16.5153 6.91682 16.9833 7.06082 17.3673 7.34882C17.7513 7.61282 17.9433 8.00882 17.9433 8.53682C17.9433 8.92082 17.8113 9.32882 17.5473 9.76082C17.3073 10.1688 17.0193 10.3728 16.6833 10.3728H11.2113V15.9888C11.2113 16.1568 11.1153 16.3368 10.9233 16.5288C10.7313 16.6968 10.5153 16.8408 10.2753 16.9608C10.0353 17.0568 9.85525 17.1048 9.73525 17.1048Z" fill="black"/>
</svg>
