<svg width="1229" height="2176" viewBox="0 0 1229 2176" fill="none" xmlns="http://www.w3.org/2000/svg">
<g filter="url(#filter0_d_41_1154)">
<rect x="4" y="186" width="1221" height="1982" rx="157" fill="#AA703C"/>
<rect x="4" y="186" width="1221" height="1982" rx="157" fill="url(#paint0_linear_41_1154)" fill-opacity="0.2"/>
</g>
<g filter="url(#filter1_dd_41_1154)">
<rect x="40" y="217" width="1161" height="1923" rx="135" fill="white"/>
</g>
<rect x="500" width="231" height="284.462" rx="115.5" fill="#D9D9D9"/>
<path d="M339.466 177.317C357.298 147.34 400.702 147.34 418.534 177.317L458.025 243.705C476.265 274.368 454.169 313.222 418.491 313.222H339.509C303.831 313.222 281.735 274.368 299.975 243.705L339.466 177.317Z" fill="url(#paint1_linear_41_1154)"/>
<path d="M810.466 177.317C828.298 147.34 871.702 147.34 889.534 177.317L929.025 243.705C947.265 274.368 925.169 313.222 889.491 313.222H810.509C774.831 313.222 752.735 274.368 770.975 243.705L810.466 177.317Z" fill="url(#paint2_linear_41_1154)"/>
<path d="M341.516 170.366C357.495 131.216 395.575 105.627 437.86 105.627H789.028C828.522 105.627 864.613 127.985 882.2 163.347C916.604 232.523 866.287 313.745 789.028 313.745H437.86C363.932 313.745 313.581 238.813 341.516 170.366Z" fill="url(#paint3_linear_41_1154)"/>
<ellipse cx="615" cy="87.8486" rx="38" ry="40.7868" fill="white"/>
<rect x="370" y="217" width="489" height="36" rx="18" fill="white"/>
<defs>
<filter id="filter0_d_41_1154" x="0" y="186" width="1229" height="1990" filterUnits="userSpaceOnUse" color-interpolation-filters="sRGB">
<feFlood flood-opacity="0" result="BackgroundImageFix"/>
<feColorMatrix in="SourceAlpha" type="matrix" values="0 0 0 0 0 0 0 0 0 0 0 0 0 0 0 0 0 0 127 0" result="hardAlpha"/>
<feOffset dy="4"/>
<feGaussianBlur stdDeviation="2"/>
<feComposite in2="hardAlpha" operator="out"/>
<feColorMatrix type="matrix" values="0 0 0 0 0 0 0 0 0 0 0 0 0 0 0 0 0 0 0.25 0"/>
<feBlend mode="normal" in2="BackgroundImageFix" result="effect1_dropShadow_41_1154"/>
<feBlend mode="normal" in="SourceGraphic" in2="effect1_dropShadow_41_1154" result="shape"/>
</filter>
<filter id="filter1_dd_41_1154" x="36" y="217" width="1169" height="1931" filterUnits="userSpaceOnUse" color-interpolation-filters="sRGB">
<feFlood flood-opacity="0" result="BackgroundImageFix"/>
<feColorMatrix in="SourceAlpha" type="matrix" values="0 0 0 0 0 0 0 0 0 0 0 0 0 0 0 0 0 0 127 0" result="hardAlpha"/>
<feOffset dy="4"/>
<feGaussianBlur stdDeviation="2"/>
<feComposite in2="hardAlpha" operator="out"/>
<feColorMatrix type="matrix" values="0 0 0 0 0 0 0 0 0 0 0 0 0 0 0 0 0 0 0.25 0"/>
<feBlend mode="normal" in2="BackgroundImageFix" result="effect1_dropShadow_41_1154"/>
<feColorMatrix in="SourceAlpha" type="matrix" values="0 0 0 0 0 0 0 0 0 0 0 0 0 0 0 0 0 0 127 0" result="hardAlpha"/>
<feOffset dy="4"/>
<feGaussianBlur stdDeviation="2"/>
<feComposite in2="hardAlpha" operator="out"/>
<feColorMatrix type="matrix" values="0 0 0 0 0 0 0 0 0 0 0 0 0 0 0 0 0 0 0.25 0"/>
<feBlend mode="normal" in2="effect1_dropShadow_41_1154" result="effect2_dropShadow_41_1154"/>
<feBlend mode="normal" in="SourceGraphic" in2="effect2_dropShadow_41_1154" result="shape"/>
</filter>
<linearGradient id="paint0_linear_41_1154" x1="601" y1="1282.64" x2="620.074" y2="-284.926" gradientUnits="userSpaceOnUse">
<stop/>
<stop offset="1" stop-color="white" stop-opacity="0"/>
</linearGradient>
<linearGradient id="paint1_linear_41_1154" x1="379" y1="110.856" x2="379" y2="380.677" gradientUnits="userSpaceOnUse">
<stop stop-color="#D9D9D9"/>
<stop offset="1" stop-color="#969696"/>
</linearGradient>
<linearGradient id="paint2_linear_41_1154" x1="850" y1="110.856" x2="850" y2="380.677" gradientUnits="userSpaceOnUse">
<stop stop-color="#D9D9D9"/>
<stop offset="1" stop-color="#9B9B9B"/>
</linearGradient>
<linearGradient id="paint3_linear_41_1154" x1="620" y1="105.627" x2="620" y2="313.745" gradientUnits="userSpaceOnUse">
<stop stop-color="#D9D9D9"/>
<stop offset="1" stop-color="#A8A8A8"/>
</linearGradient>
</defs>
</svg>
