<svg width="749" height="381" viewBox="0 0 749 381" fill="none" xmlns="http://www.w3.org/2000/svg">
<rect x="260" width="231" height="284.462" rx="115.5" fill="#D9D9D9"/>
<path d="M99.4659 177.317C117.298 147.34 160.702 147.34 178.534 177.317L218.025 243.705C236.265 274.368 214.169 313.222 178.491 313.222H99.5091C63.8314 313.222 41.735 274.368 59.9748 243.705L99.4659 177.317Z" fill="url(#paint0_linear_636_58)"/>
<path d="M570.466 177.317C588.298 147.34 631.702 147.34 649.534 177.317L689.025 243.705C707.265 274.368 685.169 313.222 649.491 313.222H570.509C534.831 313.222 512.735 274.368 530.975 243.705L570.466 177.317Z" fill="url(#paint1_linear_636_58)"/>
<path d="M101.516 170.366C117.495 131.216 155.575 105.627 197.86 105.627H549.028C588.522 105.627 624.613 127.985 642.2 163.347C676.604 232.523 626.287 313.745 549.028 313.745H197.86C123.932 313.745 73.5813 238.813 101.516 170.366Z" fill="url(#paint2_linear_636_58)"/>
<ellipse cx="375" cy="87.8486" rx="38" ry="40.7868" fill="white"/>
<rect x="130" y="217" width="489" height="36" rx="18" fill="white"/>
<defs>
<linearGradient id="paint0_linear_636_58" x1="139" y1="110.856" x2="139" y2="380.677" gradientUnits="userSpaceOnUse">
<stop stop-color="#D9D9D9"/>
<stop offset="1" stop-color="#969696"/>
</linearGradient>
<linearGradient id="paint1_linear_636_58" x1="610" y1="110.856" x2="610" y2="380.677" gradientUnits="userSpaceOnUse">
<stop stop-color="#D9D9D9"/>
<stop offset="1" stop-color="#9B9B9B"/>
</linearGradient>
<linearGradient id="paint2_linear_636_58" x1="380" y1="105.627" x2="380" y2="313.745" gradientUnits="userSpaceOnUse">
<stop stop-color="#D9D9D9"/>
<stop offset="1" stop-color="#A8A8A8"/>
</linearGradient>
</defs>
</svg>
