<svg width="1400" height="1482" viewBox="0 0 1400 1482" fill="none" xmlns="http://www.w3.org/2000/svg">
<rect width="1400" height="1482" fill="#FAF4EA"/>
<line x1="205.965" y1="1482" x2="205.965" stroke="#FF3750" stroke-opacity="0.5" stroke-width="5"/>
<line x1="2" y1="159.485" x2="1400" y2="159.485" stroke="#81DEEB" stroke-opacity="0.2" stroke-width="3"/>
<line x1="2" y1="238.478" x2="1400" y2="238.478" stroke="#81DEEB" stroke-opacity="0.2" stroke-width="3"/>
<line x1="2" y1="317.471" x2="1400" y2="317.471" stroke="#81DEEB" stroke-opacity="0.2" stroke-width="3"/>
<line x1="2" y1="396.464" x2="1400" y2="396.464" stroke="#81DEEB" stroke-opacity="0.2" stroke-width="3"/>
<line x1="2" y1="475.457" x2="1400" y2="475.457" stroke="#81DEEB" stroke-opacity="0.2" stroke-width="3"/>
<line x1="2" y1="554.449" x2="1400" y2="554.449" stroke="#81DEEB" stroke-opacity="0.2" stroke-width="3"/>
<line x1="2" y1="633.442" x2="1400" y2="633.442" stroke="#81DEEB" stroke-opacity="0.2" stroke-width="3"/>
<line x1="2" y1="712.435" x2="1400" y2="712.435" stroke="#81DEEB" stroke-opacity="0.2" stroke-width="3"/>
<line x1="2" y1="791.428" x2="1400" y2="791.428" stroke="#81DEEB" stroke-opacity="0.2" stroke-width="3"/>
<line x1="2" y1="870.421" x2="1400" y2="870.421" stroke="#81DEEB" stroke-opacity="0.2" stroke-width="3"/>
<line x1="2" y1="949.414" x2="1400" y2="949.414" stroke="#81DEEB" stroke-opacity="0.2" stroke-width="3"/>
<line x1="2" y1="1028.41" x2="1400" y2="1028.41" stroke="#81DEEB" stroke-opacity="0.2" stroke-width="3"/>
<line x1="2" y1="1107.4" x2="1400" y2="1107.4" stroke="#81DEEB" stroke-opacity="0.2" stroke-width="3"/>
<line x1="2" y1="1186.39" x2="1400" y2="1186.39" stroke="#81DEEB" stroke-opacity="0.2" stroke-width="3"/>
<line x1="2" y1="1265.38" x2="1400" y2="1265.38" stroke="#81DEEB" stroke-opacity="0.2" stroke-width="3"/>
<line x1="2" y1="1344.38" x2="1400" y2="1344.38" stroke="#81DEEB" stroke-opacity="0.2" stroke-width="3"/>
<line x1="2" y1="1423.37" x2="1400" y2="1423.37" stroke="#81DEEB" stroke-opacity="0.2" stroke-width="3"/>
</svg>
