<svg width="203" height="378" viewBox="0 0 203 378" fill="#D9D9D9" xmlns="http://www.w3.org/2000/svg">
  <path
    d="M108.708 372.353C83.932 361.789 67.854 337.456 67.854 310.521V261.514C30.0462 256.141 0.973145 223.639 0.973145 184.347C0.973145 145.055 30.0462 112.554 67.854 107.181V68.0782C67.854 42.994 81.8211 19.9966 104.08 8.43104C148.827 -14.8191 202.29 17.6515 202.29 68.0781L202.291 310.521C202.291 358.724 153.049 391.259 108.708 372.353ZM48.9731 203.293C58.7431 203.293 66.7908 195.919 67.854 186.433V182.154C66.7908 172.667 58.7431 165.293 48.9731 165.293C38.4797 165.293 29.9731 173.8 29.9731 184.293C29.9731 194.787 38.4797 203.293 48.9731 203.293ZM126.973 260.29C126.973 270.231 135.032 278.29 144.973 278.29C154.914 278.29 162.973 270.231 162.973 260.29V118.29C162.973 108.349 154.914 100.29 144.973 100.29C135.032 100.29 126.973 108.349 126.973 118.29V260.29Z" />
</svg>